<?xml version="1.0" encoding="UTF-8"?>
<svg xmlns="http://www.w3.org/2000/svg" xmlns:xlink="http://www.w3.org/1999/xlink" width="17pt" height="16pt" viewBox="0 0 17 16" version="1.1">
<g id="surface1">
<path style=" stroke:none;fill-rule:nonzero;fill:rgb(0%,0%,0%);fill-opacity:1;" d="M 16.113281 5.535156 C 15.699219 4.488281 14.949219 3.675781 13.949219 3.191406 C 13.558594 3.007812 13.304688 2.636719 13.285156 2.226562 L 13.28125 2.074219 C 13.277344 1.960938 13.191406 1.863281 13.074219 1.835938 C 12.953125 1.8125 12.832031 1.867188 12.777344 1.96875 L 12.703125 2.105469 C 12.5 2.46875 12.105469 2.703125 11.667969 2.710938 C 10.472656 2.753906 9.382812 3.253906 8.535156 4.085938 C 7.773438 2.441406 6.171875 1.28125 4.289062 1.007812 L 0.835938 0.503906 C 0.746094 0.488281 0.65625 0.523438 0.597656 0.585938 C 0.535156 0.652344 0.515625 0.742188 0.542969 0.824219 L 1.574219 3.964844 C 2 5.265625 2.949219 6.355469 4.214844 7.007812 C 3.949219 7.121094 3.6875 7.253906 3.441406 7.402344 C 2.441406 8.011719 1.765625 8.875 1.480469 9.898438 C 1.371094 10.296875 1.046875 10.613281 0.625 10.71875 L 0.46875 10.757812 C 0.347656 10.785156 0.265625 10.886719 0.265625 11 C 0.265625 11.113281 0.347656 11.214844 0.46875 11.242188 L 0.625 11.28125 C 1.046875 11.386719 1.371094 11.703125 1.480469 12.101562 C 1.765625 13.125 2.441406 13.988281 3.441406 14.597656 C 4.410156 15.1875 5.605469 15.5 6.90625 15.5 C 9.140625 15.5 10.992188 14.605469 11.890625 13.128906 C 11.894531 13.128906 11.898438 13.128906 11.902344 13.128906 C 11.992188 13.128906 12.078125 13.121094 12.167969 13.109375 C 14.175781 12.800781 15.757812 11.195312 16.296875 8.917969 C 16.578125 7.722656 16.515625 6.554688 16.113281 5.535156 Z M 8.144531 4.511719 C 7.832031 4.898438 7.574219 5.316406 7.371094 5.761719 L 7.152344 5.585938 L 7.207031 3.046875 C 7.613281 3.476562 7.929688 3.972656 8.144531 4.511719 Z M 2.308594 4.378906 L 4.34375 3.960938 L 5.078125 4.558594 L 2.636719 4.945312 C 2.511719 4.765625 2.40625 4.574219 2.308594 4.378906 Z M 2.820312 2.722656 L 1.78125 2.90625 L 1.324219 1.507812 Z M 1.671875 1.128906 L 3.207031 1.355469 L 3.164062 2.34375 Z M 2.082031 3.816406 L 1.941406 3.386719 L 3.332031 3.140625 L 3.839844 3.554688 L 2.113281 3.910156 C 2.105469 3.878906 2.09375 3.847656 2.082031 3.816406 Z M 5.476562 1.851562 L 5.425781 4.179688 L 4.691406 3.582031 L 4.832031 1.628906 C 5.050781 1.691406 5.265625 1.765625 5.476562 1.851562 Z M 6 2.105469 C 6.242188 2.242188 6.472656 2.394531 6.6875 2.566406 L 6.632812 5.160156 L 5.945312 4.605469 Z M 4.308594 1.515625 L 4.1875 3.175781 L 3.679688 2.761719 L 3.734375 1.429688 L 4.207031 1.5 C 4.242188 1.503906 4.273438 1.511719 4.308594 1.515625 Z M 2.980469 5.398438 L 5.601562 4.984375 L 6.285156 5.539062 L 3.5625 5.96875 C 3.351562 5.796875 3.15625 5.605469 2.980469 5.398438 Z M 4.144531 6.386719 L 6.804688 5.964844 L 7.167969 6.257812 C 7.140625 6.339844 7.113281 6.421875 7.089844 6.503906 C 7.027344 6.5 6.96875 6.5 6.90625 6.5 C 6.230469 6.496094 5.554688 6.585938 4.90625 6.769531 C 4.640625 6.660156 4.386719 6.535156 4.144531 6.386719 Z M 3.730469 7.820312 C 4.113281 7.589844 4.527344 7.40625 4.964844 7.277344 C 4.972656 7.273438 4.976562 7.273438 4.984375 7.269531 C 5.609375 7.085938 6.253906 6.996094 6.90625 7 C 9.164062 7 10.984375 7.984375 11.660156 9.566406 C 11.839844 9.988281 11.707031 10.46875 11.332031 10.75 L 11.066406 10.75 C 11.207031 10.371094 11.183594 9.953125 10.996094 9.59375 C 10.808594 9.230469 10.476562 8.957031 10.070312 8.828125 C 9.824219 8.511719 9.449219 8.265625 9.007812 8.121094 C 8.742188 8.035156 8.460938 7.996094 8.179688 8 C 7.828125 7.683594 7.296875 7.5 6.726562 7.5 C 6.144531 7.5 5.601562 7.691406 5.25 8.019531 C 5.046875 8.039062 4.84375 8.082031 4.648438 8.148438 C 3.972656 8.378906 3.480469 8.847656 3.351562 9.371094 C 2.765625 9.609375 2.386719 10.152344 2.390625 10.75 L 1.566406 10.75 C 1.769531 10.546875 1.917969 10.296875 1.992188 10.027344 C 2.242188 9.125 2.84375 8.363281 3.730469 7.820312 Z M 6.03125 12.824219 L 5.773438 12.578125 C 5.550781 12.371094 5.25 12.25 4.9375 12.238281 L 3.726562 12.203125 C 3.707031 12.203125 3.691406 12.203125 3.671875 12.207031 C 3.671875 12.207031 3.667969 12.207031 3.667969 12.203125 C 3.222656 12.074219 2.921875 11.6875 2.921875 11.25 L 10.484375 11.25 C 10.671875 11.558594 10.671875 11.933594 10.484375 12.242188 L 8.828125 12.246094 C 8.363281 12.25 7.9375 12.496094 7.730469 12.886719 C 7.6875 12.96875 7.695312 13.0625 7.746094 13.140625 C 7.796875 13.214844 7.890625 13.257812 7.984375 13.25 C 8.078125 13.246094 8.164062 13.191406 8.207031 13.113281 C 8.324219 12.890625 8.566406 12.746094 8.828125 12.746094 L 9.765625 12.746094 C 9.730469 12.765625 9.703125 12.789062 9.683594 12.820312 C 9.507812 13.074219 9.195312 13.289062 8.835938 13.40625 C 8.597656 13.484375 8.347656 13.511719 8.097656 13.492188 C 8.011719 13.484375 7.929688 13.515625 7.871094 13.578125 C 7.632812 13.839844 7.191406 14 6.726562 14 C 6.257812 14 5.816406 13.835938 5.574219 13.574219 C 5.527344 13.519531 5.457031 13.488281 5.382812 13.484375 C 5.195312 13.476562 5.007812 13.441406 4.828125 13.382812 C 4.429688 13.246094 4.105469 12.988281 3.949219 12.710938 L 4.921875 12.738281 C 5.101562 12.742188 5.269531 12.8125 5.394531 12.933594 L 5.65625 13.175781 C 5.722656 13.242188 5.820312 13.265625 5.914062 13.242188 C 6.007812 13.21875 6.078125 13.152344 6.101562 13.066406 C 6.128906 12.976562 6.101562 12.886719 6.03125 12.824219 Z M 3.667969 9.796875 C 3.667969 9.792969 3.671875 9.792969 3.671875 9.792969 C 3.6875 9.796875 3.703125 9.796875 3.71875 9.796875 L 3.726562 9.796875 L 4.9375 9.761719 C 5.25 9.753906 5.550781 9.632812 5.773438 9.421875 L 6.03125 9.175781 C 6.101562 9.113281 6.128906 9.019531 6.101562 8.933594 C 6.078125 8.847656 6.007812 8.78125 5.914062 8.757812 C 5.820312 8.734375 5.722656 8.757812 5.65625 8.824219 L 5.394531 9.066406 C 5.269531 9.1875 5.097656 9.257812 4.917969 9.261719 L 3.949219 9.289062 C 4.105469 9.011719 4.429688 8.753906 4.828125 8.617188 C 5.007812 8.558594 5.195312 8.523438 5.382812 8.515625 C 5.457031 8.511719 5.527344 8.480469 5.574219 8.425781 C 5.816406 8.164062 6.257812 8 6.726562 8 C 7.191406 8 7.632812 8.160156 7.871094 8.421875 C 7.929688 8.484375 8.011719 8.515625 8.097656 8.507812 C 8.347656 8.488281 8.597656 8.515625 8.835938 8.59375 C 9.195312 8.710938 9.507812 8.925781 9.683594 9.179688 C 9.703125 9.210938 9.730469 9.234375 9.765625 9.253906 L 8.828125 9.253906 C 8.566406 9.25 8.324219 9.109375 8.207031 8.886719 C 8.140625 8.765625 7.980469 8.714844 7.851562 8.777344 C 7.71875 8.839844 7.667969 8.988281 7.730469 9.113281 C 7.9375 9.503906 8.363281 9.75 8.828125 9.753906 L 10.484375 9.757812 C 10.671875 10.0625 10.671875 10.441406 10.484375 10.75 L 2.921875 10.75 C 2.921875 10.3125 3.222656 9.925781 3.667969 9.796875 Z M 6.90625 15 C 5.710938 15 4.609375 14.714844 3.730469 14.179688 C 2.84375 13.636719 2.242188 12.875 1.992188 11.972656 C 1.917969 11.703125 1.769531 11.453125 1.566406 11.25 L 2.390625 11.25 C 2.386719 11.847656 2.765625 12.390625 3.351562 12.628906 C 3.480469 13.152344 3.972656 13.621094 4.648438 13.851562 C 4.84375 13.917969 5.046875 13.960938 5.25 13.980469 C 5.601562 14.308594 6.144531 14.5 6.726562 14.5 C 7.296875 14.5 7.828125 14.316406 8.179688 14 C 8.460938 14.003906 8.742188 13.964844 9.007812 13.878906 C 9.449219 13.734375 9.824219 13.488281 10.070312 13.171875 C 10.476562 13.042969 10.808594 12.769531 10.996094 12.40625 C 11.183594 12.046875 11.207031 11.628906 11.066406 11.25 L 11.332031 11.25 C 11.707031 11.53125 11.839844 12.011719 11.660156 12.433594 C 10.984375 14.015625 9.164062 15 6.90625 15 Z M 15.777344 8.808594 C 15.292969 10.851562 13.910156 12.296875 12.160156 12.601562 C 12.230469 12.433594 12.265625 12.253906 12.269531 12.074219 L 12.886719 11.402344 C 13.039062 11.238281 13.179688 11.070312 13.308594 10.894531 C 13.390625 10.78125 13.363281 10.625 13.242188 10.546875 C 13.121094 10.46875 12.957031 10.496094 12.871094 10.605469 C 12.753906 10.769531 12.625 10.925781 12.484375 11.074219 L 12.140625 11.449219 C 12.066406 11.285156 11.960938 11.132812 11.828125 11 C 12.261719 10.566406 12.390625 9.933594 12.152344 9.382812 C 12.042969 9.121094 11.902344 8.871094 11.734375 8.636719 L 12.230469 6.554688 C 12.25 6.46875 12.21875 6.375 12.148438 6.316406 C 12.078125 6.253906 11.980469 6.234375 11.890625 6.261719 C 11.796875 6.285156 11.730469 6.359375 11.710938 6.445312 L 11.3125 8.128906 C 10.789062 7.59375 10.109375 7.171875 9.320312 6.894531 C 9.476562 6.449219 9.6875 6.027344 9.957031 5.636719 C 10.035156 5.519531 10 5.363281 9.875 5.289062 C 9.75 5.214844 9.585938 5.25 9.507812 5.367188 C 9.21875 5.792969 8.984375 6.253906 8.8125 6.738281 C 8.425781 6.636719 8.03125 6.570312 7.632812 6.53125 C 8.292969 4.570312 9.855469 3.277344 11.6875 3.210938 C 12.128906 3.199219 12.542969 3.03125 12.859375 2.742188 C 13.011719 3.128906 13.316406 3.449219 13.707031 3.636719 C 14.585938 4.0625 15.246094 4.78125 15.617188 5.710938 C 15.980469 6.636719 16.039062 7.707031 15.777344 8.808594 Z M 15.777344 8.808594 "/>
<path style=" stroke:none;fill-rule:nonzero;fill:rgb(0%,0%,0%);fill-opacity:1;" d="M 12.558594 4.007812 C 12.417969 3.976562 12.273438 4.0625 12.242188 4.195312 L 11.945312 5.445312 C 11.925781 5.53125 11.957031 5.625 12.027344 5.683594 C 12.09375 5.746094 12.195312 5.765625 12.285156 5.738281 C 12.375 5.714844 12.445312 5.640625 12.464844 5.554688 L 12.761719 4.304688 C 12.792969 4.167969 12.703125 4.035156 12.558594 4.007812 Z M 12.558594 4.007812 "/>
<path style=" stroke:none;fill-rule:nonzero;fill:rgb(0%,0%,0%);fill-opacity:1;" d="M 11.261719 3.566406 L 10.574219 4.164062 C 10.421875 4.296875 10.277344 4.4375 10.136719 4.582031 C 10.074219 4.648438 10.054688 4.742188 10.082031 4.828125 C 10.113281 4.914062 10.1875 4.976562 10.28125 4.996094 C 10.375 5.015625 10.472656 4.984375 10.535156 4.917969 C 10.660156 4.78125 10.796875 4.652344 10.9375 4.53125 L 11.625 3.933594 C 11.695312 3.875 11.726562 3.78125 11.703125 3.695312 C 11.683594 3.605469 11.613281 3.535156 11.523438 3.507812 C 11.433594 3.484375 11.332031 3.503906 11.261719 3.566406 Z M 11.261719 3.566406 "/>
<path style=" stroke:none;fill-rule:nonzero;fill:rgb(0%,0%,0%);fill-opacity:1;" d="M 14.210938 7.820312 C 14.066406 7.800781 13.929688 7.894531 13.910156 8.03125 L 13.878906 8.214844 C 13.789062 8.808594 13.59375 9.382812 13.308594 9.914062 C 13.265625 9.996094 13.269531 10.089844 13.324219 10.167969 C 13.375 10.242188 13.464844 10.285156 13.5625 10.28125 C 13.65625 10.273438 13.742188 10.222656 13.785156 10.140625 C 14.09375 9.558594 14.304688 8.933594 14.40625 8.289062 L 14.433594 8.105469 C 14.457031 7.96875 14.355469 7.84375 14.210938 7.820312 Z M 14.210938 7.820312 "/>
<path style=" stroke:none;fill-rule:nonzero;fill:rgb(0%,0%,0%);fill-opacity:1;" d="M 14.421875 6.210938 C 14.40625 6.121094 14.386719 6.035156 14.367188 5.949219 C 14.351562 5.859375 14.28125 5.789062 14.191406 5.761719 C 14.101562 5.734375 14.003906 5.753906 13.929688 5.8125 C 13.859375 5.871094 13.828125 5.964844 13.847656 6.050781 C 13.867188 6.128906 13.882812 6.210938 13.894531 6.289062 C 13.9375 6.527344 13.960938 6.769531 13.972656 7.007812 C 13.976562 7.144531 14.09375 7.25 14.238281 7.25 L 14.246094 7.25 C 14.394531 7.246094 14.507812 7.128906 14.503906 6.992188 C 14.492188 6.730469 14.464844 6.46875 14.421875 6.210938 Z M 14.421875 6.210938 "/>
<path style=" stroke:none;fill-rule:nonzero;fill:rgb(0%,0%,0%);fill-opacity:1;" d="M 13.636719 5.332031 C 13.683594 5.464844 13.835938 5.53125 13.976562 5.484375 C 14.113281 5.441406 14.1875 5.296875 14.136719 5.167969 C 14.101562 5.074219 14.066406 4.980469 14.023438 4.886719 L 13.710938 4.15625 C 13.652344 4.027344 13.5 3.96875 13.363281 4.019531 C 13.226562 4.070312 13.164062 4.214844 13.21875 4.34375 L 13.535156 5.074219 C 13.570312 5.160156 13.605469 5.246094 13.636719 5.332031 Z M 13.636719 5.332031 "/>
<path style=" stroke:none;fill-rule:nonzero;fill:rgb(0%,0%,0%);fill-opacity:1;" d="M 6.03125 10.425781 L 6.1875 10.28125 C 6.585938 9.90625 7.226562 9.90625 7.625 10.28125 L 7.78125 10.425781 C 7.882812 10.523438 8.054688 10.523438 8.15625 10.425781 C 8.261719 10.328125 8.261719 10.171875 8.15625 10.074219 L 8 9.925781 C 7.394531 9.359375 6.417969 9.359375 5.8125 9.925781 L 5.65625 10.074219 C 5.550781 10.171875 5.550781 10.328125 5.65625 10.425781 C 5.757812 10.523438 5.929688 10.523438 6.03125 10.425781 Z M 6.03125 10.425781 "/>
<path style=" stroke:none;fill-rule:nonzero;fill:rgb(0%,0%,0%);fill-opacity:1;" d="M 8 12.074219 L 8.15625 11.925781 C 8.261719 11.828125 8.261719 11.671875 8.15625 11.574219 C 8.054688 11.476562 7.882812 11.476562 7.78125 11.574219 L 7.625 11.71875 C 7.226562 12.09375 6.585938 12.09375 6.1875 11.71875 L 6.03125 11.574219 C 5.929688 11.476562 5.757812 11.476562 5.65625 11.574219 C 5.550781 11.671875 5.550781 11.828125 5.65625 11.925781 L 5.8125 12.074219 C 6.417969 12.640625 7.394531 12.640625 8 12.074219 Z M 8 12.074219 "/>
</g>
</svg>
