<?xml version="1.0" encoding="UTF-8"?>
<svg xmlns="http://www.w3.org/2000/svg" xmlns:xlink="http://www.w3.org/1999/xlink" width="17pt" height="16pt" viewBox="0 0 17 16" version="1.1">
<g id="surface1">
<path style=" stroke:none;fill-rule:nonzero;fill:rgb(0%,0%,0%);fill-opacity:1;" d="M 8.4375 15.492188 C 8.472656 15.492188 8.511719 15.492188 8.550781 15.492188 C 9.867188 15.433594 10.886719 14.378906 10.824219 13.136719 C 10.792969 12.492188 10.46875 11.890625 9.929688 11.488281 C 9.824219 11.40625 9.664062 11.417969 9.570312 11.511719 L 9.503906 11.582031 C 9.347656 11.277344 9.160156 10.984375 8.941406 10.710938 L 8.648438 10.34375 C 8.5625 10.234375 8.394531 10.210938 8.277344 10.292969 C 8.257812 10.308594 8.238281 10.324219 8.226562 10.34375 L 7.933594 10.710938 C 7.695312 11.007812 7.496094 11.328125 7.332031 11.667969 C 7.296875 11.636719 7.261719 11.605469 7.230469 11.574219 L 7.210938 11.558594 C 7.109375 11.472656 6.957031 11.472656 6.855469 11.554688 C 5.867188 12.378906 5.769531 13.800781 6.644531 14.730469 C 7.097656 15.214844 7.75 15.492188 8.4375 15.492188 Z M 8.355469 11.011719 L 8.4375 10.910156 L 8.519531 11.011719 C 8.757812 11.3125 8.960938 11.644531 9.113281 11.992188 C 8.855469 12.289062 8.625 12.605469 8.429688 12.941406 C 8.222656 12.625 7.992188 12.332031 7.730469 12.054688 C 7.890625 11.683594 8.101562 11.332031 8.355469 11.011719 Z M 7.039062 12.09375 C 7.507812 12.527344 7.898438 13.027344 8.203125 13.578125 C 8.269531 13.699219 8.429688 13.75 8.558594 13.6875 C 8.609375 13.660156 8.648438 13.625 8.671875 13.578125 L 8.804688 13.339844 C 9.058594 12.875 9.378906 12.445312 9.757812 12.058594 L 9.78125 12.035156 C 10.136719 12.382812 10.324219 12.851562 10.292969 13.332031 C 10.242188 14.230469 9.476562 14.945312 8.523438 14.992188 C 7.5 15.039062 6.628906 14.292969 6.578125 13.328125 C 6.558594 12.875 6.722656 12.433594 7.039062 12.09375 Z M 7.039062 12.09375 "/>
<path style=" stroke:none;fill-rule:nonzero;fill:rgb(0%,0%,0%);fill-opacity:1;" d="M 13.855469 6.972656 C 14.832031 6.972656 15.648438 6.277344 15.75 5.363281 C 15.863281 4.332031 15.421875 3.316406 14.570312 2.65625 L 13.222656 1.613281 C 13.109375 1.523438 12.945312 1.539062 12.851562 1.644531 C 12.835938 1.660156 12.824219 1.679688 12.816406 1.699219 L 12.070312 3.183594 C 11.597656 4.121094 11.65625 5.214844 12.226562 6.101562 C 12.570312 6.640625 13.1875 6.972656 13.855469 6.972656 Z M 12.550781 3.398438 L 13.148438 2.203125 L 14.234375 3.042969 C 14.945312 3.59375 15.316406 4.445312 15.222656 5.3125 C 15.144531 6.019531 14.472656 6.535156 13.71875 6.464844 C 13.285156 6.421875 12.902344 6.195312 12.679688 5.84375 C 12.203125 5.101562 12.15625 4.183594 12.550781 3.398438 Z M 12.550781 3.398438 "/>
<path style=" stroke:none;fill-rule:nonzero;fill:rgb(0%,0%,0%);fill-opacity:1;" d="M 13.722656 5.761719 C 13.753906 5.898438 13.898438 5.980469 14.039062 5.953125 C 14.183594 5.921875 14.273438 5.789062 14.242188 5.652344 L 13.71875 3.457031 C 13.6875 3.324219 13.546875 3.238281 13.402344 3.269531 C 13.257812 3.296875 13.167969 3.433594 13.203125 3.566406 Z M 13.722656 5.761719 "/>
<path style=" stroke:none;fill-rule:nonzero;fill:rgb(0%,0%,0%);fill-opacity:1;" d="M 13.089844 5.632812 C 13.234375 5.632812 13.355469 5.523438 13.355469 5.382812 C 13.355469 5.363281 13.351562 5.347656 13.347656 5.328125 L 13.117188 4.351562 C 13.082031 4.21875 12.941406 4.132812 12.796875 4.164062 C 12.65625 4.195312 12.566406 4.328125 12.597656 4.460938 L 12.828125 5.4375 C 12.855469 5.550781 12.964844 5.632812 13.089844 5.632812 Z M 13.089844 5.632812 "/>
<path style=" stroke:none;fill-rule:nonzero;fill:rgb(0%,0%,0%);fill-opacity:1;" d="M 14.382812 5.109375 C 14.414062 5.246094 14.558594 5.332031 14.699219 5.300781 C 14.84375 5.273438 14.933594 5.140625 14.902344 5.003906 L 14.671875 4.027344 C 14.640625 3.890625 14.496094 3.804688 14.355469 3.835938 C 14.210938 3.867188 14.121094 4 14.152344 4.136719 Z M 14.382812 5.109375 "/>
<path style=" stroke:none;fill-rule:nonzero;fill:rgb(0%,0%,0%);fill-opacity:1;" d="M 6.414062 7.886719 C 6.785156 8.144531 7.296875 8.109375 7.621094 7.804688 L 7.808594 7.628906 C 7.890625 7.550781 8.003906 7.507812 8.121094 7.507812 C 8.21875 7.507812 8.3125 7.535156 8.390625 7.589844 L 8.738281 7.835938 C 9.144531 8.125 9.722656 8.046875 10.027344 7.664062 C 10.339844 7.273438 10.265625 6.71875 9.859375 6.417969 L 9.628906 6.242188 C 9.210938 5.929688 8.691406 5.757812 8.160156 5.757812 C 7.535156 5.753906 6.9375 5.988281 6.5 6.40625 L 6.316406 6.574219 C 5.957031 6.914062 5.957031 7.464844 6.316406 7.804688 C 6.347656 7.832031 6.382812 7.859375 6.414062 7.886719 Z M 6.691406 6.929688 L 6.875 6.757812 C 7.214844 6.4375 7.675781 6.257812 8.160156 6.257812 C 8.574219 6.257812 8.972656 6.390625 9.296875 6.632812 L 9.527344 6.808594 C 9.710938 6.941406 9.742188 7.1875 9.605469 7.363281 C 9.472656 7.523438 9.230469 7.558594 9.054688 7.4375 L 8.707031 7.191406 C 8.539062 7.070312 8.332031 7.007812 8.121094 7.007812 C 7.863281 7.007812 7.613281 7.101562 7.433594 7.277344 L 7.246094 7.449219 C 7.109375 7.578125 6.890625 7.59375 6.734375 7.484375 C 6.5625 7.363281 6.527344 7.132812 6.65625 6.96875 C 6.667969 6.957031 6.679688 6.941406 6.691406 6.929688 Z M 6.691406 6.929688 "/>
<path style=" stroke:none;fill-rule:nonzero;fill:rgb(0%,0%,0%);fill-opacity:1;" d="M 12.28125 10.601562 L 12.578125 10.613281 C 12.609375 10.613281 12.636719 10.613281 12.667969 10.613281 C 13.171875 10.613281 13.660156 10.460938 14.066406 10.179688 C 14.566406 9.832031 14.902344 9.3125 14.992188 8.730469 L 15.03125 8.492188 C 15.105469 8.015625 14.757812 7.574219 14.253906 7.503906 C 14.210938 7.496094 14.167969 7.496094 14.125 7.492188 L 14.117188 7.492188 C 13.660156 7.496094 13.273438 7.808594 13.203125 8.234375 L 13.164062 8.476562 C 13.148438 8.589844 13.085938 8.6875 12.992188 8.753906 C 12.914062 8.804688 12.820312 8.835938 12.726562 8.835938 L 12.722656 8.835938 L 12.289062 8.832031 L 12.28125 8.832031 C 11.773438 8.832031 11.363281 9.21875 11.359375 9.695312 C 11.351562 10.183594 11.761719 10.585938 12.28125 10.601562 Z M 12.28125 9.332031 L 12.285156 9.332031 L 12.71875 9.335938 L 12.726562 9.335938 C 12.933594 9.335938 13.136719 9.269531 13.304688 9.15625 C 13.515625 9.011719 13.652344 8.792969 13.691406 8.550781 L 13.730469 8.308594 C 13.761719 8.128906 13.925781 7.996094 14.117188 7.992188 L 14.121094 7.992188 C 14.335938 7.996094 14.511719 8.160156 14.507812 8.367188 C 14.507812 8.382812 14.507812 8.402344 14.503906 8.417969 L 14.46875 8.65625 C 14.328125 9.519531 13.523438 10.144531 12.597656 10.113281 L 12.300781 10.101562 C 12.070312 10.09375 11.886719 9.914062 11.890625 9.699219 C 11.890625 9.496094 12.066406 9.332031 12.28125 9.332031 Z M 12.28125 9.332031 "/>
<path style=" stroke:none;fill-rule:nonzero;fill:rgb(0%,0%,0%);fill-opacity:1;" d="M 8.246094 0.582031 L 6.933594 1.816406 C 6.535156 2.191406 6.3125 2.703125 6.3125 3.230469 L 6.3125 3.242188 C 6.3125 3.960938 6.722656 4.621094 7.382812 4.976562 C 8.402344 5.527344 9.699219 5.191406 10.28125 4.234375 C 10.464844 3.933594 10.5625 3.589844 10.5625 3.242188 L 10.5625 3.230469 C 10.5625 2.703125 10.339844 2.191406 9.941406 1.816406 L 8.628906 0.582031 C 8.515625 0.480469 8.363281 0.480469 8.246094 0.582031 Z M 8.121094 2.089844 L 8.4375 1.390625 L 8.753906 2.089844 C 8.894531 2.398438 8.96875 2.730469 8.96875 3.070312 C 8.96875 3.609375 8.78125 4.132812 8.4375 4.566406 C 8.09375 4.132812 7.90625 3.609375 7.90625 3.070312 C 7.90625 2.730469 7.976562 2.398438 8.121094 2.089844 Z M 10.03125 3.230469 L 10.03125 3.242188 C 10.03125 3.78125 9.722656 4.277344 9.226562 4.542969 C 9.164062 4.578125 9.097656 4.609375 9.03125 4.632812 C 9.335938 4.164062 9.5 3.621094 9.5 3.070312 C 9.5 2.664062 9.414062 2.261719 9.242188 1.890625 L 9.226562 1.851562 L 9.5625 2.171875 C 9.863281 2.453125 10.03125 2.832031 10.03125 3.230469 Z M 6.84375 3.230469 C 6.84375 2.832031 7.011719 2.453125 7.308594 2.171875 L 7.648438 1.851562 L 7.632812 1.890625 C 7.460938 2.261719 7.375 2.664062 7.375 3.070312 C 7.375 3.621094 7.539062 4.164062 7.84375 4.632812 C 7.777344 4.609375 7.710938 4.578125 7.648438 4.542969 C 7.152344 4.277344 6.84375 3.78125 6.84375 3.242188 Z M 6.84375 3.230469 "/>
<path style=" stroke:none;fill-rule:nonzero;fill:rgb(0%,0%,0%);fill-opacity:1;" d="M 4.71875 7.394531 C 4.636719 7.394531 4.554688 7.433594 4.507812 7.496094 L 4.089844 8.015625 C 3.808594 8.371094 3.65625 8.800781 3.65625 9.242188 C 3.65625 9.796875 4.132812 10.242188 4.71875 10.242188 C 5.304688 10.242188 5.78125 9.796875 5.78125 9.242188 C 5.78125 8.800781 5.628906 8.371094 5.347656 8.015625 L 4.929688 7.496094 C 4.878906 7.433594 4.800781 7.394531 4.71875 7.394531 Z M 5.011719 9.660156 C 4.769531 9.8125 4.4375 9.75 4.277344 9.519531 C 4.21875 9.4375 4.1875 9.34375 4.1875 9.242188 C 4.1875 8.910156 4.304688 8.585938 4.515625 8.316406 L 4.71875 8.0625 L 4.921875 8.316406 C 5.132812 8.585938 5.25 8.910156 5.25 9.242188 C 5.25 9.410156 5.160156 9.566406 5.011719 9.660156 Z M 5.011719 9.660156 "/>
<path style=" stroke:none;fill-rule:nonzero;fill:rgb(0%,0%,0%);fill-opacity:1;" d="M 1.828125 7.695312 C 2.148438 7.777344 2.488281 7.753906 2.796875 7.636719 L 3.226562 7.472656 C 3.359375 7.421875 3.425781 7.277344 3.371094 7.148438 C 3.363281 7.125 3.347656 7.105469 3.332031 7.085938 L 3.046875 6.746094 C 2.839844 6.5 2.554688 6.324219 2.234375 6.246094 C 1.808594 6.140625 1.371094 6.378906 1.257812 6.78125 C 1.148438 7.179688 1.402344 7.589844 1.828125 7.695312 Z M 1.851562 6.785156 C 1.902344 6.742188 1.964844 6.722656 2.03125 6.722656 C 2.050781 6.722656 2.074219 6.722656 2.097656 6.730469 C 2.308594 6.78125 2.496094 6.898438 2.628906 7.058594 L 2.695312 7.136719 L 2.597656 7.175781 C 2.394531 7.25 2.171875 7.265625 1.960938 7.210938 C 1.820312 7.175781 1.734375 7.039062 1.773438 6.90625 C 1.785156 6.859375 1.8125 6.816406 1.851562 6.785156 Z M 1.851562 6.785156 "/>
<path style=" stroke:none;fill-rule:nonzero;fill:rgb(0%,0%,0%);fill-opacity:1;" d="M 10.351562 8.765625 C 10.082031 8.582031 9.757812 8.488281 9.425781 8.496094 L 8.964844 8.503906 C 8.816406 8.507812 8.699219 8.621094 8.703125 8.757812 C 8.703125 8.78125 8.707031 8.804688 8.714844 8.828125 L 8.851562 9.242188 C 8.953125 9.542969 9.152344 9.800781 9.421875 9.984375 C 9.78125 10.226562 10.277344 10.152344 10.535156 9.816406 C 10.792969 9.480469 10.714844 9.011719 10.355469 8.769531 C 10.355469 8.765625 10.355469 8.765625 10.351562 8.765625 Z M 9.980469 9.609375 C 9.898438 9.640625 9.804688 9.628906 9.734375 9.578125 C 9.558594 9.457031 9.425781 9.289062 9.359375 9.09375 L 9.328125 8.996094 L 9.433594 8.996094 C 9.652344 8.992188 9.867188 9.054688 10.042969 9.171875 C 10.164062 9.253906 10.191406 9.410156 10.105469 9.519531 C 10.074219 9.5625 10.03125 9.589844 9.980469 9.609375 Z M 9.980469 9.609375 "/>
<path style=" stroke:none;fill-rule:nonzero;fill:rgb(0%,0%,0%);fill-opacity:1;" d="M 3.996094 5.398438 L 4.679688 5.492188 C 4.695312 5.492188 4.707031 5.492188 4.71875 5.492188 C 4.863281 5.492188 4.984375 5.382812 4.984375 5.242188 C 4.984375 5.230469 4.984375 5.21875 4.980469 5.207031 L 4.882812 4.5625 C 4.816406 4.125 4.601562 3.71875 4.269531 3.40625 C 3.855469 3.015625 3.179688 3.015625 2.765625 3.40625 C 2.351562 3.796875 2.351562 4.429688 2.765625 4.820312 C 3.097656 5.132812 3.53125 5.335938 3.996094 5.398438 Z M 2.996094 4.015625 C 3.054688 3.746094 3.335938 3.570312 3.621094 3.625 C 3.722656 3.644531 3.820312 3.691406 3.894531 3.761719 C 4.144531 3.996094 4.304688 4.304688 4.359375 4.632812 L 4.40625 4.949219 L 4.070312 4.90625 C 3.71875 4.855469 3.394531 4.703125 3.140625 4.46875 C 3.015625 4.347656 2.960938 4.179688 2.996094 4.015625 Z M 2.996094 4.015625 "/>
<path style=" stroke:none;fill-rule:nonzero;fill:rgb(0%,0%,0%);fill-opacity:1;" d="M 14.75 11.304688 L 14.757812 11.222656 C 14.777344 11.085938 14.675781 10.960938 14.527344 10.941406 C 14.445312 10.933594 14.363281 10.960938 14.304688 11.015625 L 14.242188 11.078125 C 14.21875 11.101562 14.191406 11.125 14.167969 11.148438 C 13.945312 11.34375 13.664062 11.472656 13.359375 11.507812 C 12.488281 11.621094 11.878906 12.378906 12 13.199219 C 12.117188 14.019531 12.921875 14.59375 13.792969 14.480469 C 14.667969 14.367188 15.277344 13.609375 15.15625 12.789062 C 15.128906 12.59375 15.058594 12.402344 14.949219 12.230469 C 14.789062 11.984375 14.714844 11.695312 14.738281 11.40625 C 14.738281 11.371094 14.742188 11.339844 14.75 11.304688 Z M 14.535156 13.425781 C 14.28125 13.925781 13.648438 14.132812 13.117188 13.894531 C 13.09375 13.886719 13.074219 13.875 13.050781 13.863281 C 12.542969 13.589844 12.363281 12.976562 12.65625 12.5 C 12.820312 12.226562 13.105469 12.046875 13.433594 12.003906 C 13.710938 11.96875 13.976562 11.878906 14.214844 11.742188 C 14.253906 12.003906 14.347656 12.257812 14.492188 12.484375 C 14.671875 12.769531 14.6875 13.125 14.535156 13.425781 Z M 14.535156 13.425781 "/>
<path style=" stroke:none;fill-rule:nonzero;fill:rgb(0%,0%,0%);fill-opacity:1;" d="M 5.074219 12.328125 L 5.007812 12.21875 C 5.046875 11.953125 4.992188 11.679688 4.851562 11.445312 C 4.710938 11.207031 4.492188 11.023438 4.230469 10.914062 L 4.164062 10.804688 C 3.914062 10.382812 3.347656 10.230469 2.898438 10.46875 C 2.679688 10.582031 2.523438 10.777344 2.457031 11.003906 L 2.445312 11 C 1.953125 10.871094 1.4375 11.140625 1.300781 11.605469 C 1.234375 11.828125 1.265625 12.070312 1.382812 12.269531 L 1.449219 12.378906 C 1.371094 12.929688 1.6875 13.464844 2.230469 13.6875 L 2.292969 13.796875 C 2.414062 14 2.617188 14.148438 2.851562 14.210938 C 3.089844 14.273438 3.34375 14.246094 3.558594 14.132812 C 3.773438 14.019531 3.933594 13.828125 4 13.605469 C 4 13.601562 4 13.601562 4.003906 13.597656 C 4.003906 13.597656 4.007812 13.597656 4.011719 13.601562 C 4.503906 13.730469 5.019531 13.460938 5.15625 12.996094 C 5.226562 12.769531 5.195312 12.53125 5.074219 12.328125 Z M 4.648438 12.859375 C 4.585938 13.058594 4.367188 13.175781 4.15625 13.117188 C 4.054688 13.089844 3.96875 13.027344 3.914062 12.941406 C 3.84375 12.820312 3.683594 12.777344 3.554688 12.84375 C 3.425781 12.914062 3.378906 13.066406 3.453125 13.183594 C 3.5625 13.367188 3.496094 13.59375 3.304688 13.695312 C 3.113281 13.800781 2.867188 13.734375 2.757812 13.554688 C 2.757812 13.554688 2.757812 13.554688 2.757812 13.550781 L 2.644531 13.367188 C 2.613281 13.3125 2.5625 13.273438 2.503906 13.253906 C 2.125 13.128906 1.902344 12.757812 1.988281 12.386719 C 2 12.328125 1.992188 12.265625 1.957031 12.210938 L 1.847656 12.027344 C 1.738281 11.84375 1.808594 11.617188 2 11.515625 C 2.058594 11.484375 2.125 11.46875 2.195312 11.46875 C 2.230469 11.46875 2.269531 11.472656 2.304688 11.480469 C 2.40625 11.507812 2.492188 11.574219 2.542969 11.660156 L 2.738281 11.988281 C 2.808594 12.105469 2.972656 12.148438 3.097656 12.082031 C 3.226562 12.015625 3.273438 11.863281 3.199219 11.742188 L 3.007812 11.414062 C 2.898438 11.234375 2.972656 11.003906 3.164062 10.90625 C 3.355469 10.808594 3.59375 10.871094 3.699219 11.046875 L 3.8125 11.234375 C 3.84375 11.289062 3.894531 11.328125 3.957031 11.347656 C 4.335938 11.472656 4.554688 11.84375 4.472656 12.210938 C 4.457031 12.273438 4.46875 12.335938 4.5 12.386719 L 4.609375 12.574219 C 4.664062 12.660156 4.675781 12.761719 4.648438 12.859375 Z M 4.648438 12.859375 "/>
</g>
</svg>
