<?xml version="1.0" encoding="UTF-8"?>
<svg xmlns="http://www.w3.org/2000/svg" xmlns:xlink="http://www.w3.org/1999/xlink" width="17pt" height="16pt" viewBox="0 0 17 16" version="1.1">
<g id="surface1">
<path style=" stroke:none;fill-rule:nonzero;fill:rgb(0%,0%,0%);fill-opacity:1;" d="M 8.5 9 C 9.085938 9 9.5625 8.550781 9.5625 8 C 9.5625 7.449219 9.085938 7 8.5 7 C 7.914062 7 7.4375 7.449219 7.4375 8 C 7.4375 8.550781 7.914062 9 8.5 9 Z M 8.5 7.5 C 8.792969 7.5 9.03125 7.722656 9.03125 8 C 9.03125 8.277344 8.792969 8.5 8.5 8.5 C 8.207031 8.5 7.96875 8.277344 7.96875 8 C 7.96875 7.722656 8.207031 7.5 8.5 7.5 Z M 8.5 7.5 "/>
<path style=" stroke:none;fill-rule:nonzero;fill:rgb(0%,0%,0%);fill-opacity:1;" d="M 11.507812 3.042969 C 11.507812 3.132812 11.5625 3.214844 11.648438 3.261719 L 12.410156 3.652344 L 12.828125 4.371094 C 12.871094 4.449219 12.960938 4.5 13.058594 4.5 C 13.15625 4.5 13.246094 4.449219 13.292969 4.371094 L 13.710938 3.652344 L 14.472656 3.261719 C 14.554688 3.214844 14.609375 3.132812 14.609375 3.042969 C 14.609375 2.949219 14.554688 2.867188 14.472656 2.820312 L 13.710938 2.429688 L 13.292969 1.710938 C 13.246094 1.632812 13.15625 1.582031 13.058594 1.582031 C 12.960938 1.582031 12.871094 1.632812 12.828125 1.710938 L 12.410156 2.429688 L 11.648438 2.820312 C 11.5625 2.867188 11.507812 2.949219 11.507812 3.042969 Z M 12.734375 2.832031 C 12.777344 2.808594 12.8125 2.777344 12.839844 2.734375 L 13.058594 2.351562 L 13.28125 2.734375 C 13.304688 2.777344 13.339844 2.808594 13.386719 2.832031 L 13.789062 3.042969 L 13.386719 3.25 C 13.339844 3.273438 13.304688 3.304688 13.28125 3.347656 L 13.058594 3.730469 L 12.839844 3.347656 C 12.8125 3.304688 12.777344 3.273438 12.734375 3.25 L 12.328125 3.042969 Z M 12.734375 2.832031 "/>
<path style=" stroke:none;fill-rule:nonzero;fill:rgb(0%,0%,0%);fill-opacity:1;" d="M 9.5625 11 L 10.09375 11 L 10.09375 11.5 L 9.5625 11.5 Z M 9.5625 11 "/>
<path style=" stroke:none;fill-rule:nonzero;fill:rgb(0%,0%,0%);fill-opacity:1;" d="M 11.421875 8 L 11.953125 8 L 11.953125 8.5 L 11.421875 8.5 Z M 11.421875 8 "/>
<path style=" stroke:none;fill-rule:nonzero;fill:rgb(0%,0%,0%);fill-opacity:1;" d="M 15.40625 8.5 L 15.9375 8.5 L 15.9375 9 L 15.40625 9 Z M 15.40625 8.5 "/>
<path style=" stroke:none;fill-rule:nonzero;fill:rgb(0%,0%,0%);fill-opacity:1;" d="M 6.375 9.5 L 6.90625 9.5 L 6.90625 10 L 6.375 10 Z M 6.375 9.5 "/>
<path style=" stroke:none;fill-rule:nonzero;fill:rgb(0%,0%,0%);fill-opacity:1;" d="M 16.480469 10.429688 C 16.15625 10.230469 15.742188 10.195312 15.386719 10.339844 L 15.140625 10.4375 L 15.140625 10 C 15.140625 9.863281 15.023438 9.75 14.875 9.75 L 13.738281 9.75 C 14.152344 9.441406 14.847656 8.8125 15.054688 7.933594 C 15.21875 7.246094 15.054688 6.550781 14.566406 5.859375 C 14.066406 5.160156 13.238281 4.882812 12.171875 5.066406 C 11.804688 5.132812 11.445312 5.238281 11.101562 5.378906 C 11.082031 5.289062 11.066406 5.195312 11.054688 5.105469 L 10.890625 3.730469 C 10.878906 2.648438 10.128906 1.691406 9.03125 1.363281 L 9.03125 0.75 C 9.03125 0.335938 8.675781 0 8.234375 0 C 7.792969 0 7.4375 0.335938 7.4375 0.75 L 7.4375 1.363281 C 6.335938 1.691406 5.585938 2.648438 5.578125 3.734375 L 5.457031 4.988281 C 5.386719 5.730469 5.042969 6.425781 4.484375 6.957031 C 3.480469 7.894531 2.917969 9.167969 2.921875 10.5 C 2.921875 10.523438 2.921875 10.546875 2.921875 10.566406 C 2.847656 10.578125 2.757812 10.578125 2.699219 10.53125 C 2.605469 10.453125 2.339844 10.070312 2.910156 8.324219 C 3.480469 6.574219 3.148438 5.175781 2.769531 4.3125 C 2.355469 3.371094 1.804688 2.84375 1.78125 2.824219 C 1.707031 2.753906 1.59375 2.730469 1.496094 2.769531 L 0.167969 3.269531 C 0.0664062 3.304688 0 3.398438 0 3.503906 C 0 3.605469 0.0703125 3.699219 0.171875 3.734375 C 2 4.378906 0.867188 7.757812 0.8125 7.914062 C 0.0507812 9.746094 0.0585938 11.242188 0.828125 12.355469 C 1.335938 13.089844 2.191406 13.648438 3.300781 13.976562 C 3.765625 14.113281 4.246094 14.203125 4.730469 14.242188 C 4.957031 14.429688 5.199219 14.601562 5.457031 14.75 L 3.453125 14.75 C 3.304688 14.75 3.1875 14.863281 3.1875 15 L 3.1875 15.75 C 3.1875 15.886719 3.304688 16 3.453125 16 L 15.9375 16 C 16.085938 16 16.203125 15.886719 16.203125 15.75 L 16.203125 15 C 16.203125 14.863281 16.085938 14.75 15.9375 14.75 L 13.21875 14.75 C 13.671875 14.476562 14.058594 14.117188 14.359375 13.699219 L 16.296875 13.3125 C 16.320312 13.308594 16.339844 13.300781 16.359375 13.289062 C 16.753906 13.105469 17 12.730469 17 12.316406 L 17 11.339844 C 17 10.972656 16.804688 10.632812 16.480469 10.429688 Z M 9.625 14.75 L 7.773438 14.75 C 6.804688 14.214844 5.988281 12.972656 5.730469 11.628906 C 5.519531 10.523438 5.722656 9.558594 6.3125 8.914062 C 7.703125 7.382812 7.742188 4.835938 7.714844 4 L 9.085938 4 C 9.058594 4.5 9.078125 5 9.136719 5.496094 C 9.292969 6.8125 9.738281 7.910156 10.421875 8.664062 C 10.628906 8.890625 10.984375 9.40625 10.957031 9.75 L 7.96875 9.75 C 7.820312 9.75 7.703125 9.863281 7.703125 10 L 7.703125 11.25 C 7.703125 12.753906 8.480469 14.066406 9.625 14.75 Z M 8.234375 1.789062 C 8.820312 2.164062 8.976562 3.0625 9.015625 3.5 L 7.453125 3.5 C 7.492188 3.0625 7.648438 2.164062 8.234375 1.789062 Z M 11.304688 9.039062 C 11.179688 8.789062 11.015625 8.550781 10.828125 8.335938 C 9.570312 6.960938 9.578125 4.710938 9.617188 4 L 10.386719 4 L 10.527344 5.160156 C 10.632812 5.988281 11.027344 6.757812 11.648438 7.351562 L 11.714844 7.414062 C 12.257812 7.933594 12.921875 8.570312 13.007812 9.75 L 11.488281 9.75 C 11.496094 9.539062 11.4375 9.300781 11.304688 9.039062 Z M 12.277344 5.554688 C 13.128906 5.414062 13.75 5.609375 14.121094 6.136719 C 14.527344 6.710938 14.667969 7.277344 14.539062 7.824219 C 14.378906 8.5 13.84375 9.019531 13.484375 9.300781 C 13.277344 8.195312 12.605469 7.554688 12.09375 7.0625 L 12.027344 7 C 11.6875 6.675781 11.425781 6.289062 11.253906 5.863281 C 11.582031 5.722656 11.925781 5.621094 12.277344 5.554688 Z M 10.34375 3.5 L 9.550781 3.5 C 9.519531 3.136719 9.414062 2.449219 9.058594 1.90625 C 9.757812 2.183594 10.246094 2.792969 10.34375 3.5 Z M 7.96875 0.75 C 7.96875 0.613281 8.085938 0.5 8.234375 0.5 C 8.382812 0.5 8.5 0.613281 8.5 0.75 L 8.5 1.261719 C 8.414062 1.253906 8.324219 1.25 8.234375 1.25 C 8.144531 1.25 8.054688 1.253906 7.96875 1.261719 Z M 7.410156 1.90625 C 7.054688 2.449219 6.949219 3.136719 6.917969 3.5 L 6.125 3.5 C 6.222656 2.792969 6.710938 2.183594 7.410156 1.90625 Z M 1.273438 12.082031 C 0.601562 11.109375 0.613281 9.765625 1.308594 8.089844 C 1.3125 8.085938 1.3125 8.082031 1.316406 8.078125 C 1.328125 8.039062 1.660156 7.097656 1.726562 6.046875 C 1.78125 5.183594 1.660156 4.117188 0.878906 3.539062 L 1.519531 3.296875 C 1.839844 3.667969 2.097656 4.082031 2.285156 4.523438 C 2.78125 5.664062 2.820312 6.894531 2.402344 8.175781 C 1.917969 9.65625 1.902344 10.550781 2.355469 10.914062 C 2.539062 11.058594 2.761719 11.089844 2.957031 11.070312 C 3.0625 11.929688 3.40625 12.75 3.953125 13.445312 C 4.011719 13.515625 4.070312 13.585938 4.128906 13.65625 C 3.304688 13.503906 1.980469 13.105469 1.273438 12.082031 Z M 4.378906 13.148438 C 2.980469 11.359375 3.183594 8.875 4.859375 7.3125 C 5.507812 6.699219 5.902344 5.894531 5.984375 5.035156 L 6.085938 4 L 7.183594 4 C 7.207031 4.757812 7.175781 7.195312 5.90625 8.585938 C 5.214844 9.347656 4.964844 10.460938 5.207031 11.71875 C 5.4375 12.910156 6.082031 14.039062 6.894531 14.75 L 6.6875 14.75 C 5.765625 14.445312 4.960938 13.886719 4.378906 13.148438 Z M 15.671875 15.5 L 3.71875 15.5 L 3.71875 15.25 L 15.671875 15.25 Z M 11.421875 14.75 C 9.664062 14.75 8.234375 13.179688 8.234375 11.25 L 8.234375 10.25 L 14.609375 10.25 L 14.609375 11.25 C 14.609375 13.179688 13.179688 14.75 11.421875 14.75 Z M 16.46875 12.316406 C 16.46875 12.527344 16.347656 12.726562 16.148438 12.828125 L 14.707031 13.117188 C 14.996094 12.53125 15.144531 11.894531 15.140625 11.25 L 15.140625 10.980469 L 15.59375 10.796875 C 15.789062 10.71875 16.011719 10.738281 16.1875 10.847656 C 16.363281 10.957031 16.46875 11.140625 16.46875 11.339844 Z M 16.46875 12.316406 "/>
</g>
</svg>
