<svg width="38" height="39" viewBox="0 0 38 39" fill="none" xmlns="http://www.w3.org/2000/svg">
<circle cx="18.6415" cy="19.4986" r="18.5277" fill="white"/>
<path d="M28.6778 17.279L26.1334 15.162V11.7764C26.1334 11.3952 25.8295 11.085 25.4561 11.085H23.8551C23.4816 11.085 23.1777 11.3952 23.1777 11.7764V12.7028L19.7779 9.87414C19.5319 9.66959 19.2078 9.55688 18.8652 9.55688C18.5239 9.55688 18.2013 9.6689 17.9567 9.87238L9.05686 17.2789C8.65248 17.6153 8.67674 17.9083 8.72717 18.053C8.77748 18.1974 8.93949 18.4397 9.45895 18.4397H10.6776V28.1797C10.6776 28.8748 11.2301 29.4403 11.9092 29.4403H15.7577C16.4311 29.4403 16.9585 28.8865 16.9585 28.1797V24.1855C16.9585 23.8432 17.2667 23.5314 17.605 23.5314H20.1912C20.5138 23.5314 20.7762 23.8249 20.7762 24.1855V28.1797C20.7762 28.863 21.3543 29.4403 22.0386 29.4403H25.8255C26.5046 29.4403 27.0571 28.8748 27.0571 28.1797V18.4397H28.2757C28.7952 18.4397 28.9571 18.1974 29.0075 18.053C29.0579 17.9083 29.0822 17.6153 28.6778 17.279Z" fill="#00AC4E"/>
</svg>
